<svg width="80" height="80" viewBox="0 0 80 80" fill="none" xmlns="http://www.w3.org/2000/svg">
<g clip-path="url(#clip0_47_68)">
<path d="M40 80C62.0914 80 80 62.0914 80 40C80 17.9086 62.0914 0 40 0C17.9086 0 0 17.9086 0 40C0 62.0914 17.9086 80 40 80Z" fill="url(#paint0_linear_47_68)"/>
<path d="M40 80C62.0914 80 80 62.0914 80 40C80 17.9086 62.0914 0 40 0C17.9086 0 0 17.9086 0 40C0 62.0914 17.9086 80 40 80Z" fill="url(#paint1_linear_47_68)"/>
<path d="M28 39.92L36.08 48L52.08 32" stroke="white" stroke-width="3" stroke-linecap="round"/>
</g>
<defs>
<linearGradient id="paint0_linear_47_68" x1="-23.014" y1="11.507" x2="-7.77902e-07" y2="91.507" gradientUnits="userSpaceOnUse">
<stop stop-color="#6348FE"/>
<stop offset="1" stop-color="#610595"/>
</linearGradient>
<linearGradient id="paint1_linear_47_68" x1="50.3704" y1="8.57143" x2="-10.7903" y2="46.6519" gradientUnits="userSpaceOnUse">
<stop stop-color="#8F21C9"/>
<stop offset="1" stop-color="#3946B6"/>
</linearGradient>
<clipPath id="clip0_47_68">
<rect width="80" height="80" fill="white"/>
</clipPath>
</defs>
</svg>
